# xmcd
#
# Track frame offsets:
#	150
#	2131
#	18206
#	34267
#	55588
#	70517
#	85685
#	106873
#	133578
#	154263
#	171820
#
# Disc length: 2631 seconds
#
# Revision: 0
# Processed by: cddbd v1.5.2PL0 Copyright (c) Steve Scherf et al.
# Submitted via: dBpowerAMP V4.0
#
DISCID=7a0a450b
DTITLE=Banda Eterno - Há Um Lugar Melhor
DYEAR=2006
DGENRE=Gospel
TTITLE0=Intro
TTITLE1=Lugar Certo
TTITLE2=Mudar Pra Melhor
TTITLE3=Gratidão
TTITLE4=Cuidado
TTITLE5=Há Um Lugar Melhor
TTITLE6=Amigo Perfeito
TTITLE7=Vejo Em Seus Olhos
TTITLE8=Preciso do Teu Perdão
TTITLE9=Amor Eterno
TTITLE10=Já Faz Algum Tempo
EXTD=
EXTT0=
EXTT1=
EXTT2=
EXTT3=
EXTT4=
EXTT5=
EXTT6=
EXTT7=
EXTT8=
EXTT9=
EXTT10=
PLAYORDER=
